HIERARCHY
ROOT Hips
{
  OFFSET 13.6774 106.653 -34.4427
  CHANNELS 6 Xposition Yposition Zposition Zrotation Xrotation Yrotation
  JOINT ToSpine
  {
    OFFSET -2.69724 7.43032 -0.144315
    CHANNELS 3 Zrotation Xrotation Yrotation
    JOINT Spine
    {
      OFFSET -0.0310711 10.7595 1.96963
      CHANNELS 3 Zrotation Xrotation Yrotation
      JOINT Spine1
      {
        OFFSET 19.9056 3.91189 0.764692
        CHANNELS 3 Zrotation Xrotation Yrotation
        JOINT Neck
        {
          OFFSET 25.9749 7.03908 -0.130764
          CHANNELS 3 Zrotation Xrotation Yrotation
          JOINT Head
          {
            OFFSET 9.52751 0.295786 -0.907742
            CHANNELS 3 Zrotation Xrotation Yrotation
            End Site
            {
              OFFSET 16.4037 0.713936 2.7358
            }
          }
        }
        JOINT LeftShoulder
        {
          OFFSET 17.7449 4.33886 11.7777
          CHANNELS 3 Zrotation Xrotation Yrotation
          JOINT LeftArm
          {
            OFFSET 0.911315 1.27913 9.80584
            CHANNELS 3 Zrotation Xrotation Yrotation
            JOINT LeftForeArm
            {
              OFFSET 28.6126 1.18197 -3.53199
              CHANNELS 3 Zrotation Xrotation Yrotation
              JOINT LeftHand
              {
                OFFSET 27.5088 0.0218783 0.327423
                CHANNELS 3 Zrotation Xrotation Yrotation
                End Site
                {
                  OFFSET 18.6038 -0.000155887 0.382096
                }
              }
            }
          }
        }
        JOINT RightShoulder
        {
          OFFSET 17.1009 2.89543 -12.2328
          CHANNELS 3 Zrotation Xrotation Yrotation
          JOINT RightArm
          {
            OFFSET 1.4228 0.178766 -10.211
            CHANNELS 3 Zrotation Xrotation Yrotation
            JOINT RightForeArm
            {
              OFFSET 28.733 1.87905 2.64907
              CHANNELS 3 Zrotation Xrotation Yrotation
              JOINT RightHand
              {
                OFFSET 27.4588 0.290562 -0.101845
                CHANNELS 3 Zrotation Xrotation Yrotation
                End Site
                {
                  OFFSET 17.8396 -0.255518 -0.000602873
                }
              }
            }
          }
        }
      }
    }
  }
  JOINT LeftUpLeg
  {
    OFFSET -5.61296 -2.22332 -10.2353
    CHANNELS 3 Zrotation Xrotation Yrotation
    JOINT LeftLeg
    {
      OFFSET 2.56703 -44.7417 -7.93097
      CHANNELS 3 Zrotation Xrotation Yrotation
      JOINT LeftFoot
      {
        OFFSET 3.16933 -46.5642 -3.96578
        CHANNELS 3 Zrotation Xrotation Yrotation
        JOINT LeftToeBase
        {
          OFFSET 0.346054 -6.02161 12.8035
          CHANNELS 3 Zrotation Xrotation Yrotation
          End Site
          {
            OFFSET 0.134235 -1.35082 5.13018
          }
        }
      }
    }
  }
  JOINT RightUpLeg
  {
    OFFSET -5.7928 -1.72406 10.6446
    CHANNELS 3 Zrotation Xrotation Yrotation
    JOINT RightLeg
    {
      OFFSET -2.57161 -44.7178 -7.85259
      CHANNELS 3 Zrotation Xrotation Yrotation
      JOINT RightFoot
      {
        OFFSET -3.10148 -46.5936 -4.03391
        CHANNELS 3 Zrotation Xrotation Yrotation
        JOINT RightToeBase
        {
          OFFSET -0.0828122 -6.13587 12.8035
          CHANNELS 3 Zrotation Xrotation Yrotation
          End Site
          {
            OFFSET -0.131328 -1.35082 5.13018
          }
        }
      }
    }
  }
}
MOTION
Frames: 7
Frame Time: 0.03333333333333333
0.0000 93.1000 0.0000 -67.1144 -2.6844 -179.8851 -70.7938 -0.4973 88.0314 130.6362 63.1474 -62.5455 -8.2316 19.3523 7.5965 -137.8955 49.2738 139.9062 81.4854 81.0111 -49.6449 2.1179 -16.2522 -25.7521 -104.5131 28.3271 -78.8375 17.8159 7.3692 -68.7377 -0.0745 -2.0642 1.7234 -2.7879 6.1121 46.4690 -65.1124 -30.5511 90.9712 16.8962 -21.2806 39.6888 1.6688 -2.3746 1.0158 -5.4989 20.0355 77.9655 -26.2306 78.2107 -2.2453 -6.5441 -8.5907 1.0610 10.0424 -22.7054 21.2261 -11.6190 -1.2865 89.1802 164.7219 71.0317 -167.8289 -7.8521 -22.8625 -0.1251 0.5709 -20.4050 -25.9795 
0.0000 93.1000 0.0000 -66.0857 -0.7752 176.3456 -70.8264 -0.0083 88.0024 129.6128 62.7167 -60.9202 -8.3753 19.7632 8.0727 -140.2758 49.0820 141.4649 82.9584 82.2843 -51.3367 -0.0427 -16.6937 -24.5363 -101.8861 28.5778 -79.7924 21.5637 6.8561 -72.9641 -0.2234 -0.3007 0.4514 -3.3236 6.3073 47.8009 -60.4856 -32.0337 89.3668 16.5106 -20.6703 40.5710 -0.0403 0.0033 0.4155 -6.5851 21.7688 77.8447 -22.3400 75.9679 -5.7062 -5.9279 -9.7854 -1.2598 11.4779 -23.7552 23.7243 -7.7331 -3.1578 87.7762 165.5077 70.2956 -167.8009 -9.8296 -20.4586 1.3284 1.1017 -25.5311 -31.3586 
0.0000 93.1000 0.0000 -64.7092 1.9275 175.4537 -70.8406 0.0734 88.0140 129.7421 62.0473 -59.5470 -8.0926 18.4873 8.1214 -145.1068 48.8634 144.3312 83.0572 83.6001 -53.5216 -0.5733 -17.0341 -25.5790 -98.3870 28.7857 -78.0199 22.6178 6.3143 -74.8201 0.0033 0.0531 0.1142 -3.1051 6.2095 46.4628 -58.7978 -34.9660 84.9066 18.5933 -20.0056 43.5193 -0.3757 0.3778 -0.3189 -11.8353 24.7844 80.6021 -17.1691 72.9159 -11.4323 -7.5954 -9.4471 -1.1594 12.9436 -23.8543 26.0641 -4.8395 -5.4382 87.0768 165.4985 71.8085 -169.5733 -12.2835 -15.6864 1.4896 -0.7142 -30.2026 -27.1878 
0.0000 93.1000 0.0000 -64.6429 6.4390 171.2347 -70.8517 0.1227 88.0186 128.6538 62.1693 -57.8356 -8.4968 17.6487 8.4698 -147.3800 48.0290 150.1267 89.3070 84.1216 -60.9643 -0.8310 -16.5170 -26.0722 -95.2891 29.8870 -75.1946 26.1752 7.6798 -74.9227 0.4804 0.2741 -0.0498 -3.0546 6.1032 45.6500 -57.0463 -37.3873 80.3227 20.2716 -19.4161 47.1114 -0.5115 0.6093 -0.5436 -19.8582 27.8294 85.5084 -12.0121 67.9114 -16.9351 -9.2432 -7.8736 -1.0093 13.8066 -25.2459 27.5866 -2.3688 -8.7769 86.8277 161.6566 73.5844 -160.5167 -12.6275 -11.1967 1.3411 -1.4096 -36.5045 -35.2369 
0.0000 93.1000 0.0000 -64.5735 11.5637 168.5416 -70.8719 0.1987 88.0077 128.5898 62.1038 -55.4768 -9.6277 17.1681 8.6456 -149.5998 47.7215 153.4308 106.8872 85.1301 -77.4574 -1.1794 -16.2718 -27.7015 -90.8607 33.1564 -71.1992 28.8857 9.1284 -72.9924 0.6778 0.5996 -0.3654 -2.7717 6.4869 44.8336 -59.0315 -39.9473 75.6553 20.9781 -19.3594 49.3800 -0.6571 1.0220 -0.5065 -31.7785 29.6102 93.6788 -7.0012 58.0429 -15.8605 -9.9642 -7.6032 -1.2337 12.1731 -23.5432 21.0160 -1.2910 -12.6410 85.0826 158.1210 76.2026 -159.1818 -12.0445 -14.1737 1.5732 -1.1085 -32.8915 -32.6821 
0.0000 93.1000 0.0000 -62.3933 15.3284 161.5470 -70.8883 -0.3303 88.0922 126.5750 63.6303 -51.1904 -11.3838 18.1397 6.9432 -151.9088 46.8314 156.8304 146.3609 85.7958 -113.5384 1.9689 -15.3798 -28.5315 -87.3774 37.2475 -68.1057 28.6815 12.9044 -67.5013 -0.5023 -2.3218 1.3863 -2.4529 6.4934 44.9346 -60.1076 -41.8953 73.5100 20.1045 -17.6151 49.9342 1.9913 -2.1763 0.9266 -44.8421 28.2160 101.8878 -4.3708 45.7939 -9.6020 -13.1545 -2.7542 2.5572 8.8365 -19.7038 8.2386 -1.5965 -15.9965 83.2223 147.9708 80.2139 -148.1612 -12.9559 -13.2950 0.4764 -0.8770 -34.2001 -30.8174 
0.0000 93.1000 0.0000 -60.0721 18.0718 157.7060 -70.8332 0.1261 88.0715 123.3974 64.5659 -44.7927 -11.0737 18.4545 5.2446 -151.7764 44.9355 160.0037 -165.4474 85.1688 -159.6937 -0.1789 -14.1812 -27.7922 -85.5030 42.2064 -67.3586 26.1896 15.1721 -60.9820 0.0884 -0.0385 -0.2994 -2.6022 5.7458 44.8343 -60.8457 -40.1982 72.0986 20.2106 -17.9105 50.7947 -0.3550 0.3845 0.1268 -51.8488 24.6309 103.8747 -2.4716 38.1598 -5.8937 -15.9759 8.5118 2.2433 6.1898 -14.4879 6.0132 -2.9087 -18.5619 79.3972 119.0073 84.7070 -117.1604 -11.5227 -15.2991 1.4836 -0.4407 -29.9511 -29.4330 
